<svg width="36" height="36" viewBox="0 0 36 36" fill="none" xmlns="http://www.w3.org/2000/svg">
<g clip-path="url(#clip0_27_21)">
<path d="M6 9V31C5.9907 31.3848 6.05731 31.7677 6.19602 32.1267C6.33473 32.4858 6.54283 32.814 6.80843 33.0926C7.07403 33.3712 7.39192 33.5947 7.74393 33.7504C8.09595 33.9061 8.47519 33.9909 8.86 34H27.09C27.4791 33.9975 27.8637 33.9175 28.2215 33.7647C28.5793 33.6119 28.9031 33.3894 29.174 33.1101C29.4449 32.8308 29.6574 32.5004 29.7992 32.1381C29.9411 31.7759 30.0093 31.3889 30 31V9H6ZM15 29H13V14H15V29ZM23 29H21V14H23V29Z" fill="black"/>
<path d="M30.73 5H23V4C23 3.46957 22.7893 2.96086 22.4142 2.58579C22.0391 2.21071 21.5304 2 21 2H14.8C14.305 2.04975 13.8462 2.28223 13.5134 2.65205C13.1806 3.02187 12.9975 3.50247 13 4V5H5C4.73478 5 4.48043 5.10536 4.29289 5.29289C4.10536 5.48043 4 5.73478 4 6C4 6.26522 4.10536 6.51957 4.29289 6.70711C4.48043 6.89464 4.73478 7 5 7H30.73C30.9952 7 31.2496 6.89464 31.4371 6.70711C31.6246 6.51957 31.73 6.26522 31.73 6C31.73 5.73478 31.6246 5.48043 31.4371 5.29289C31.2496 5.10536 30.9952 5 30.73 5Z" fill="black"/>
</g>
<defs>
<clipPath id="clip0_27_21">
<rect width="36" height="36" fill="white"/>
</clipPath>
</defs>
</svg>
