<svg width="24" height="24" viewBox="0 0 24 24" fill="none" xmlns="http://www.w3.org/2000/svg">
<path d="M17.849 11.808L17.142 11.101L7.242 21.001H3V16.758L14.313 5.444L19.97 11.101C20.1575 11.2885 20.2628 11.5428 20.2628 11.808C20.2628 12.0732 20.1575 12.3275 19.97 12.515L12.9 19.586L11.485 18.172L17.849 11.808ZM18.556 2.616L21.385 5.444C21.5725 5.63153 21.6778 5.88583 21.6778 6.151C21.6778 6.41616 21.5725 6.67047 21.385 6.858L19.97 8.273L15.728 4.03L17.142 2.616C17.3295 2.42853 17.5838 2.32321 17.849 2.32321C18.1142 2.32321 18.3685 2.42853 18.556 2.616Z" fill="black"/>
</svg>
